<svg xmlns="http://www.w3.org/2000/svg" width="1200" height="1600" viewBox="0 0 1200 1600">
  <rect width="1200" height="1600" fill="#b79263"/>
  <rect x="90" y="70" width="1020" height="1460" rx="12" fill="#fffef8" transform="rotate(-2 600 800)"/>
  <g transform="rotate(-2 600 800)">
    <line x1="150" y1="260" x2="1050" y2="260" stroke="#c8ddf2" stroke-width="3"/>
    <line x1="150" y1="360" x2="1050" y2="360" stroke="#c8ddf2" stroke-width="3"/>
    <line x1="150" y1="460" x2="1050" y2="460" stroke="#c8ddf2" stroke-width="3"/>
    <line x1="150" y1="560" x2="1050" y2="560" stroke="#c8ddf2" stroke-width="3"/>
    <line x1="150" y1="660" x2="1050" y2="660" stroke="#c8ddf2" stroke-width="3"/>
    <line x1="150" y1="760" x2="1050" y2="760" stroke="#c8ddf2" stroke-width="3"/>
    <line x1="150" y1="860" x2="1050" y2="860" stroke="#c8ddf2" stroke-width="3"/>
    <line x1="150" y1="960" x2="1050" y2="960" stroke="#c8ddf2" stroke-width="3"/>
    <line x1="150" y1="1060" x2="1050" y2="1060" stroke="#c8ddf2" stroke-width="3"/>
    <line x1="210" y1="140" x2="210" y2="1450" stroke="#f0aaaa" stroke-width="4"/>
    <text x="270" y="190" font-family="Arial, sans-serif" font-size="36" font-weight="700" fill="#263b74">JAMB Mathematics Practice</text>
    <text x="270" y="330" font-family="Comic Sans MS, cursive" font-size="50" fill="#183e8f">Solve: 3x − 4 = 11</text>
    <text x="270" y="440" font-family="Comic Sans MS, cursive" font-size="50" fill="#183e8f">3x = 11 − 4</text>
    <path d="M255 395 L670 455 M265 455 L665 395" stroke="#bf332e" stroke-width="10" stroke-linecap="round"/>
    <text x="270" y="540" font-family="Comic Sans MS, cursive" font-size="50" fill="#183e8f">x = 7 / 3</text>
    <path d="M255 500 L510 550 M260 550 L510 500" stroke="#bf332e" stroke-width="10" stroke-linecap="round"/>
    <text x="270" y="700" font-family="Comic Sans MS, cursive" font-size="36" fill="#6680b6">Check transposition rule...</text>
  </g>
</svg>
